<svg width="26" height="26" viewBox="0 0 26 26" fill="none" xmlns="http://www.w3.org/2000/svg">
<path d="M17 7.66667H17.0133M1 18.3333L7.66667 11.6667C8.904 10.476 10.4293 10.476 11.6667 11.6667L18.3333 18.3333M15.6667 15.6667L17 14.3333C18.2373 13.1427 19.7627 13.1427 21 14.3333L25 18.3333M1 5C1 3.93913 1.42143 2.92172 2.17157 2.17157C2.92172 1.42143 3.93913 1 5 1H21C22.0609 1 23.0783 1.42143 23.8284 2.17157C24.5786 2.92172 25 3.93913 25 5V21C25 22.0609 24.5786 23.0783 23.8284 23.8284C23.0783 24.5786 22.0609 25 21 25H5C3.93913 25 2.92172 24.5786 2.17157 23.8284C1.42143 23.0783 1 22.0609 1 21V5Z" stroke="#EFF6FF" stroke-width="2" stroke-linecap="round" stroke-linejoin="round"/>
</svg>
